# xmcd CD database file
#
# Track frame offsets:
#	150
#	19257
#	41713
#	60611
#	77558
#	114478
#	131702
#	156931
#	175142
#	196492
#
# Disc length: 3007 seconds
#
# Revision: 0
# Processed by: cddbd v1.4PL0 Copyright (c) Steve Scherf et al.
# Submitted via: CDex 1.40Release
#
DISCID=840bbd0a
DTITLE=Kapela przyjaciela - Pociag Zbawienia
DYEAR=1900
DGENRE=Blues
TTITLE0=A kto puk, puk, kto tam?
TTITLE1=Psalm 63
TTITLE2=Jonasz X
TTITLE3=Wstan kiedys upadl
TTITLE4=Glowa z korona
TTITLE5=Pociag Zbawienia
TTITLE6=Miemoca silni
TTITLE7=Twoj dotyk
TTITLE8=Bracie stoj
TTITLE9=Czy slyszysz
EXTD=ID3G: 0
EXTT0=
EXTT1=
EXTT2=
EXTT3=
EXTT4=
EXTT5=
EXTT6=
EXTT7=
EXTT8=
EXTT9=
PLAYORDER=
